<mxfile host="Electron" agent="Mozilla/5.0 (Macintosh; Intel Mac OS X 10_15_7) AppleWebKit/537.36 (KHTML, like Gecko) draw.io/28.0.4 Chrome/138.0.7204.97 Electron/37.2.1 Safari/537.36" version="28.0.4" pages="4">
  <diagram id="80e4bbd97bea4eb3" name="Ibm Mq Graph Tb">
    <mxGraphModel dx="706" dy="604" grid="1" gridSize="10" guides="1" tooltips="1" connect="1" arrows="1" fold="1" page="1" pageScale="1" pageWidth="827" pageHeight="1169" math="0" shadow="0">
      <root>
        <mxCell id="0" />
        <mxCell id="1" parent="0" />
        <UserObject label="" mermaidData="{&quot;data&quot;:&quot;graph TB\n    subgraph \&quot;IBM MQ Queue Manager\&quot;\n        QM[Queue Manager]\n        \n        subgraph \&quot;Queues\&quot;\n            LQ[Local Queue]\n            RQ[Remote Queue]\n            AQ[Alias Queue]\n            DLQ[Dead Letter Queue]\n        end\n        \n        subgraph \&quot;Channels\&quot;\n            SDR[Sender Channel]\n            RCV[Receiver Channel]\n            SVR[Server Channel]\n            CLT[Client Channel]\n        end\n        \n        subgraph \&quot;Objects\&quot;\n            TOPIC[Topics]\n            SUB[Subscriptions]\n            NAMELIST[Namelists]\n        end\n    end\n    \n    subgraph \&quot;Applications\&quot;\n        PUT[Message Producers]\n        GET[Message Consumers]\n        PUBSUB[Pub/Sub Apps]\n    end\n    \n    PUT --&gt; QM\n    GET --&gt; QM\n    PUBSUB --&gt; QM\n    \n    QM --&gt; LQ\n    QM --&gt; RQ\n    QM --&gt; AQ\n    \n    SDR --&gt; RCV\n    CLT --&gt; SVR\n    \n    QM --&gt; TOPIC\n    TOPIC --&gt; SUB&quot;}" id="6825efc44eed43ef">
          <mxCell style="shape=image;noLabel=1;verticalAlign=top;imageAspect=1;image=data:image/svg+xml,PHN2ZyB3aWR0aD0iMjAwIiBoZWlnaHQ9IjIwMCIgeG1sbnM9Imh0dHA6Ly93d3cudzMub3JnLzIwMDAvc3ZnIj48cmVjdCB3aWR0aD0iMjAwIiBoZWlnaHQ9IjIwMCIgZmlsbD0iI2Y5ZjlmOSIgc3Ryb2tlPSIjY2NjIi8+PHRleHQgeD0iMTAwIiB5PSIxMDAiIHRleHQtYW5jaG9yPSJtaWRkbGUiIGZvbnQtZmFtaWx5PSJBcmlhbCIgZm9udC1zaXplPSIxNCIgZmlsbD0iIzMzMyI+TWVybWFpZCBEaWFncmFtPC90ZXh0Pjwvc3ZnPg==;" vertex="1" parent="1">
            <mxGeometry x="260" y="130" width="200" height="200" as="geometry" />
          </mxCell>
        </UserObject>
      </root>
    </mxGraphModel>
  </diagram>
  <diagram id="b0bfb2f8c979400c" name="Ibm Mq Graph Tb 2">
    <mxGraphModel dx="706" dy="604" grid="1" gridSize="10" guides="1" tooltips="1" connect="1" arrows="1" fold="1" page="1" pageScale="1" pageWidth="827" pageHeight="1169" math="0" shadow="0">
      <root>
        <mxCell id="0" />
        <mxCell id="1" parent="0" />
        <UserObject label="" mermaidData="{&quot;data&quot;:&quot;graph TB\n    subgraph \&quot;IBM MQ Queue Manager\&quot;\n        QM[Queue Manager]\n        \n        subgraph \&quot;Core Components\&quot;\n            LQM[Local Queue Manager]\n            CMD[Command Server]\n            LOG[Log Manager]\n            STORE[Message Store]\n        end\n        \n        subgraph \&quot;Communication\&quot;\n            LISTENER[Listener]\n            CHANNELS[Channel Manager]\n            AGENT[Channel Agent]\n        end\n        \n        subgraph \&quot;Security\&quot;\n            AUTH[Authentication]\n            AUTHZ[Authorization]\n            SSL[SSL/TLS]\n        end\n    end\n    \n    subgraph \&quot;Applications\&quot;\n        CLIENT[MQ Client Apps]\n        BINDINGS[Bindings Apps]\n        JMS[JMS Applications]\n    end\n    \n    subgraph \&quot;Administration\&quot;\n        ADMIN[MQ Admin]\n        EXPLORER[MQ Explorer]\n        CONSOLE[Web Console]\n    end\n    \n    CLIENT --&gt; LISTENER\n    BINDINGS --&gt; QM\n    JMS --&gt; QM\n    \n    LISTENER --&gt; CHANNELS\n    CHANNELS --&gt; AGENT\n    \n    QM --&gt; LQM\n    QM --&gt; CMD\n    QM --&gt; LOG\n    QM --&gt; STORE\n    \n    QM --&gt; AUTH\n    QM --&gt; AUTHZ\n    QM --&gt; SSL\n    \n    ADMIN --&gt; CMD\n    EXPLORER --&gt; CMD\n    CONSOLE --&gt; CMD&quot;}" id="2834e8f5272d4c74">
          <mxCell style="shape=image;noLabel=1;verticalAlign=top;imageAspect=1;image=data:image/svg+xml,PHN2ZyB3aWR0aD0iMjAwIiBoZWlnaHQ9IjIwMCIgeG1sbnM9Imh0dHA6Ly93d3cudzMub3JnLzIwMDAvc3ZnIj48cmVjdCB3aWR0aD0iMjAwIiBoZWlnaHQ9IjIwMCIgZmlsbD0iI2Y5ZjlmOSIgc3Ryb2tlPSIjY2NjIi8+PHRleHQgeD0iMTAwIiB5PSIxMDAiIHRleHQtYW5jaG9yPSJtaWRkbGUiIGZvbnQtZmFtaWx5PSJBcmlhbCIgZm9udC1zaXplPSIxNCIgZmlsbD0iIzMzMyI+TWVybWFpZCBEaWFncmFtPC90ZXh0Pjwvc3ZnPg==;" vertex="1" parent="1">
            <mxGeometry x="260" y="130" width="200" height="200" as="geometry" />
          </mxCell>
        </UserObject>
      </root>
    </mxGraphModel>
  </diagram>
  <diagram id="ca1f24053fba4d26" name="Ibm Mq Graph Tb 3">
    <mxGraphModel dx="706" dy="604" grid="1" gridSize="10" guides="1" tooltips="1" connect="1" arrows="1" fold="1" page="1" pageScale="1" pageWidth="827" pageHeight="1169" math="0" shadow="0">
      <root>
        <mxCell id="0" />
        <mxCell id="1" parent="0" />
        <UserObject label="" mermaidData="{&quot;data&quot;:&quot;graph TB\n    subgraph \&quot;IBM MQ Cluster\&quot;\n        subgraph \&quot;Queue Manager 1\&quot;\n            QM1[Queue Manager QM1]\n            REPOS1[Repository]\n            FULL1[Full Repository]\n        end\n        \n        subgraph \&quot;Queue Manager 2\&quot;\n            QM2[Queue Manager QM2]\n            REPOS2[Repository]\n            FULL2[Full Repository]\n        end\n        \n        subgraph \&quot;Queue Manager 3\&quot;\n            QM3[Queue Manager QM3]\n            REPOS3[Repository]\n            PARTIAL[Partial Repository]\n        end\n        \n        subgraph \&quot;Cluster Channels\&quot;\n            CLUSRCVR[Cluster Receiver]\n            CLUSSDR[Cluster Sender]\n        end\n    end\n    \n    subgraph \&quot;Applications\&quot;\n        APP1[Application 1]\n        APP2[Application 2]\n        APP3[Application 3]\n    end\n    \n    subgraph \&quot;Load Balancing\&quot;\n        WLM[Workload Management]\n        CLWLM[Cluster Workload Management]\n    end\n    \n    APP1 --&gt; QM1\n    APP2 --&gt; QM2\n    APP3 --&gt; QM3\n    \n    QM1 --&gt; REPOS1\n    QM2 --&gt; REPOS2\n    QM3 --&gt; REPOS3\n    \n    REPOS1 --&gt; FULL1\n    REPOS2 --&gt; FULL2\n    REPOS3 --&gt; PARTIAL\n    \n    QM1 --&gt; CLUSRCVR\n    QM2 --&gt; CLUSRCVR\n    QM3 --&gt; CLUSRCVR\n    \n    CLUSRCVR --&gt; CLUSSDR\n    \n    QM1 --&gt; WLM\n    QM2 --&gt; WLM\n    QM3 --&gt; WLM\n    \n    WLM --&gt; CLWLM&quot;}" id="34013f30ccca4dce">
          <mxCell style="shape=image;noLabel=1;verticalAlign=top;imageAspect=1;image=data:image/svg+xml,PHN2ZyB3aWR0aD0iMjAwIiBoZWlnaHQ9IjIwMCIgeG1sbnM9Imh0dHA6Ly93d3cudzMub3JnLzIwMDAvc3ZnIj48cmVjdCB3aWR0aD0iMjAwIiBoZWlnaHQ9IjIwMCIgZmlsbD0iI2Y5ZjlmOSIgc3Ryb2tlPSIjY2NjIi8+PHRleHQgeD0iMTAwIiB5PSIxMDAiIHRleHQtYW5jaG9yPSJtaWRkbGUiIGZvbnQtZmFtaWx5PSJBcmlhbCIgZm9udC1zaXplPSIxNCIgZmlsbD0iIzMzMyI+TWVybWFpZCBEaWFncmFtPC90ZXh0Pjwvc3ZnPg==;" vertex="1" parent="1">
            <mxGeometry x="260" y="130" width="200" height="200" as="geometry" />
          </mxCell>
        </UserObject>
      </root>
    </mxGraphModel>
  </diagram>
  <diagram id="34872d0c07cc4179" name="Ibm Mq Graph Tb 4">
    <mxGraphModel dx="706" dy="604" grid="1" gridSize="10" guides="1" tooltips="1" connect="1" arrows="1" fold="1" page="1" pageScale="1" pageWidth="827" pageHeight="1169" math="0" shadow="0">
      <root>
        <mxCell id="0" />
        <mxCell id="1" parent="0" />
        <UserObject label="" mermaidData="{&quot;data&quot;:&quot;graph TB\n    subgraph \&quot;Production Environment\&quot;\n        subgraph \&quot;Data Center 1\&quot;\n            QM1[Queue Manager QM1]\n            MQHA1[MQ HA Group 1]\n            STORAGE1[Shared Storage 1]\n        end\n        \n        subgraph \&quot;Data Center 2\&quot;\n            QM2[Queue Manager QM2]\n            MQHA2[MQ HA Group 2]\n            STORAGE2[Shared Storage 2]\n        end\n        \n        subgraph \&quot;Data Center 3\&quot;\n            QM3[Queue Manager QM3]\n            MQHA3[MQ HA Group 3]\n            STORAGE3[Shared Storage 3]\n        end\n        \n        subgraph \&quot;Load Balancer\&quot;\n            LB[MQ Load Balancer]\n            CCDTs[Client Channel Definition Tables]\n        end\n        \n        subgraph \&quot;Monitoring\&quot;\n            MQMON[MQ Monitoring]\n            TIVOLI[Tivoli Monitoring]\n            SPLUNK[Splunk Integration]\n        end\n    end\n    \n    subgraph \&quot;Applications\&quot;\n        ENT[Enterprise Apps]\n        LEGACY[Legacy Systems]\n        MODERN[Modern Apps]\n    end\n    \n    subgraph \&quot;Management\&quot;\n        ADMIN[MQ Admin]\n        CONSOLE[MQ Console]\n        EXPLORER[MQ Explorer]\n    end\n    \n    ENT --&gt; LB\n    LEGACY --&gt; LB\n    MODERN --&gt; LB\n    \n    LB --&gt; CCDTs\n    CCDTs --&gt; QM1\n    CCDTs --&gt; QM2\n    CCDTs --&gt; QM3\n    \n    QM1 --&gt; MQHA1\n    QM2 --&gt; MQHA2\n    QM3 --&gt; MQHA3\n    \n    MQHA1 --&gt; STORAGE1\n    MQHA2 --&gt; STORAGE2\n    MQHA3 --&gt; STORAGE3\n    \n    QM1 -.-&gt; QM2\n    QM2 -.-&gt; QM3\n    QM3 -.-&gt; QM1\n    \n    QM1 --&gt; MQMON\n    QM2 --&gt; MQMON\n    QM3 --&gt; MQMON\n    \n    MQMON --&gt; TIVOLI\n    MQMON --&gt; SPLUNK\n    \n    ADMIN --&gt; CONSOLE\n    CONSOLE --&gt; EXPLORER&quot;}" id="720242cc9e2146dd">
          <mxCell style="shape=image;noLabel=1;verticalAlign=top;imageAspect=1;image=data:image/svg+xml,PHN2ZyB3aWR0aD0iMjAwIiBoZWlnaHQ9IjIwMCIgeG1sbnM9Imh0dHA6Ly93d3cudzMub3JnLzIwMDAvc3ZnIj48cmVjdCB3aWR0aD0iMjAwIiBoZWlnaHQ9IjIwMCIgZmlsbD0iI2Y5ZjlmOSIgc3Ryb2tlPSIjY2NjIi8+PHRleHQgeD0iMTAwIiB5PSIxMDAiIHRleHQtYW5jaG9yPSJtaWRkbGUiIGZvbnQtZmFtaWx5PSJBcmlhbCIgZm9udC1zaXplPSIxNCIgZmlsbD0iIzMzMyI+TWVybWFpZCBEaWFncmFtPC90ZXh0Pjwvc3ZnPg==;" vertex="1" parent="1">
            <mxGeometry x="260" y="130" width="200" height="200" as="geometry" />
          </mxCell>
        </UserObject>
      </root>
    </mxGraphModel>
  </diagram>
</mxfile>